<svg width="133" height="23" viewBox="0 0 133 23" fill="none" xmlns="http://www.w3.org/2000/svg">
<g clip-path="url(#clip0_787_942)">
<path d="M33.5127 4.80859H36.5341L40.8204 17.7426H38.3782L37.3332 14.4775C37.2552 14.2251 37.3427 14.026 37.5625 13.9556L37.8533 13.8561C38.3451 13.6934 38.6004 13.1618 38.416 12.6204C38.2316 12.0985 37.8013 11.9432 37.319 12.0791L37.0377 12.1592C36.8013 12.2393 36.624 12.1228 36.5554 11.8703L34.9926 6.90114L33.411 11.8703C33.3495 12.1058 33.1746 12.2393 32.9192 12.1689L32.7088 12.0961C32.1816 11.9432 31.6899 12.1495 31.522 12.6811C31.373 13.1861 31.6544 13.6813 32.1627 13.8633L32.4346 13.9629C32.645 14.0357 32.7065 14.2251 32.6284 14.4775L31.5575 17.7426H29.1602L33.5174 4.80859H33.5127ZM33.7065 12.2952H36.3142C36.8769 12.2952 37.3167 12.737 37.3167 13.305C37.3167 13.8731 36.8769 14.2785 36.3142 14.2785H33.7065C33.1367 14.2785 32.697 13.8633 32.697 13.305C32.697 12.7467 33.1367 12.2952 33.7065 12.2952Z" fill="white"/>
<path d="M42.1815 8.27291H44.2549V9.16625C44.2549 9.31919 44.132 9.46484 43.9641 9.46484H43.6213C43.1745 9.46484 42.7773 9.79741 42.7773 10.2951C42.7773 10.7636 43.1106 11.1326 43.5669 11.1326C44.0232 11.1326 44.2596 10.7903 44.3755 10.2951C44.4724 9.88966 44.6308 9.52796 44.8318 9.2318C45.307 8.5011 46.0706 8.0957 47.0707 8.0957C47.2456 8.0957 47.4135 8.1127 47.527 8.14183V10.3703C47.2976 10.3169 47.0707 10.2902 46.8153 10.2902C45.4535 10.2902 44.4086 11.2005 44.4086 13.1571V17.7476H42.1768V8.27777L42.1815 8.27291Z" fill="white"/>
<path d="M48.1865 13.0421C48.1865 9.85956 49.9786 8.00977 52.4988 8.00977C54.7377 8.00977 56.3809 9.27209 56.5487 11.7797H54.2649C54.2034 10.464 53.5178 9.80372 52.5343 9.80372C51.3049 9.80372 50.4964 10.85 50.4964 12.9959C50.4964 15.1419 51.2789 16.1979 52.5177 16.1979C53.4658 16.1979 54.1609 15.5473 54.2649 14.2146H56.5487C56.3478 16.7319 54.6786 18.0016 52.4823 18.0016C49.9171 18.0016 48.1865 16.261 48.1865 13.0421ZM49.3568 13.8286C49.7965 13.8286 50.1654 13.4669 50.1654 13.0081C50.1654 12.5493 49.7965 12.1779 49.3568 12.1779C48.9171 12.1779 48.5577 12.5566 48.5577 13.0081C48.5577 13.4596 48.91 13.8286 49.3568 13.8286Z" fill="white"/>
<path d="M58.332 4.80859H60.5024V9.04709C60.5024 9.30927 60.3629 9.4622 60.1075 9.4622H59.6938C59.2281 9.4622 58.8498 9.8142 58.8498 10.2924C58.8498 10.7707 59.1831 11.1299 59.6489 11.1299C60.1146 11.1299 60.3605 10.8313 60.5095 10.2924C60.9397 8.85774 61.8098 8.01053 63.356 8.01053C65.148 8.01053 66.2285 9.29227 66.2285 11.2392V17.7426H63.9967V11.4552C63.9967 10.4089 63.4789 9.80449 62.4954 9.80449C61.292 9.80449 60.5638 10.7876 60.5638 12.6083V17.7401H58.332V4.80859Z" fill="white"/>
<path d="M69.6176 4.55469C70.3742 4.55469 70.9794 5.11302 70.9794 5.82672C70.9794 6.54042 70.3742 7.11575 69.6176 7.11575C68.8611 7.11575 68.2559 6.5477 68.2559 5.82672C68.2559 5.10574 68.8611 4.55469 69.6176 4.55469ZM68.4923 8.27126H70.7241V17.7411H68.4923V8.27126Z" fill="white"/>
<path d="M72.1094 8.27148H74.4807L76.3342 14.1777C76.3697 14.2772 76.3862 14.3501 76.3862 14.4205C76.3862 14.5467 76.3413 14.6268 76.2538 14.7191L76.0434 14.9351C75.859 15.1245 75.7715 15.3599 75.7715 15.593C75.7715 16.0979 76.1569 16.5033 76.651 16.5033C77.1451 16.5033 77.5305 16.0979 77.5305 15.593C77.5305 15.3672 77.443 15.1245 77.2586 14.9351L77.0482 14.7288C76.9607 14.6389 76.9158 14.5564 76.9158 14.4496C76.9158 14.3695 76.9418 14.2869 76.9678 14.2068L78.7764 8.27148H81.0603L77.8189 17.7414H75.4216L72.1094 8.27148Z" fill="white"/>
<path d="M82.0186 12.9984C82.0186 9.86927 83.9241 8.00977 86.4727 8.00977C89.0213 8.00977 90.681 9.7139 90.681 12.8527C90.681 13.0955 90.681 13.331 90.6715 13.5567H85.1109C84.6357 13.5567 84.3024 13.2241 84.3024 12.7629C84.3024 12.3017 84.6357 11.9691 85.1109 11.9691H88.3688C88.2813 10.4179 87.5957 9.70419 86.4633 9.70419C85.4088 9.70419 84.6452 10.4082 84.4159 11.6608C84.3709 11.8671 84.2575 11.9594 84.0305 11.9594H83.8721C83.4253 11.9594 83.0824 12.275 83.0824 12.7338C83.0824 13.1926 83.4253 13.5082 83.8721 13.5082H84.04C84.2409 13.5082 84.3473 13.5883 84.3638 13.814C84.4702 15.4551 85.3308 16.2756 86.5507 16.2756C87.5437 16.2756 88.2364 15.6808 88.3877 14.5884H90.6361C90.3997 16.664 88.8606 17.9967 86.4727 17.9967C83.865 17.9967 82.0186 16.3921 82.0186 12.9911V12.9984Z" fill="white"/>
<path d="M95.7451 4.80859H98.7665L103.053 17.7426H100.611L99.5656 14.4775C99.4876 14.2251 99.5751 14.026 99.795 13.9556L100.086 13.8561C100.578 13.6934 100.833 13.1618 100.648 12.6204C100.464 12.0985 100.034 11.9432 99.5514 12.0791L99.2701 12.1592C99.0337 12.2393 98.8564 12.1228 98.7878 11.8703L97.2251 6.90114L95.6434 11.8703C95.5819 12.1058 95.407 12.2393 95.1517 12.1689L94.9412 12.0961C94.414 11.9432 93.9223 12.1495 93.7544 12.6811C93.6055 13.1861 93.8868 13.6813 94.3951 13.8633L94.667 13.9629C94.8774 14.0357 94.9389 14.2251 94.8609 14.4775L93.7899 17.7426H91.3926L95.7498 4.80859H95.7451ZM95.9389 12.2952H98.5467C99.1093 12.2952 99.5491 12.737 99.5491 13.305C99.5491 13.8731 99.1093 14.2785 98.5467 14.2785H95.9389C95.3692 14.2785 94.9294 13.8633 94.9294 13.305C94.9294 12.7467 95.3692 12.2952 95.9389 12.2952Z" fill="white"/>
<path d="M104.625 15.1716V10.0398H103.053V8.27251H103.237C104.405 8.27251 104.916 7.76758 104.984 6.38874L105.029 5.45898H106.847V7.56852C106.847 7.78458 106.734 7.91081 106.523 7.91081H106.058C105.575 7.91081 105.207 8.2798 105.207 8.74831C105.207 9.24353 105.575 9.62223 106.058 9.62223C106.514 9.62223 106.876 9.24353 106.876 8.74831V8.59538C106.876 8.38903 106.999 8.27008 107.209 8.27008H108.859V10.0373H106.847V14.9264C106.847 15.7931 107.313 16.0625 107.999 16.0625C108.228 16.0625 108.474 16.0358 108.701 15.9824V17.74C108.332 17.8492 107.911 17.9123 107.436 17.9123C105.757 17.9123 104.625 17.1816 104.625 15.1716Z" fill="white"/>
<path d="M110.562 4.80859H112.793V17.7426H110.562V4.80859Z" fill="white"/>
<path d="M114.602 15.1608C114.602 13.3305 115.753 12.4833 117.536 12.2017L119.082 11.9589C120.056 11.806 120.453 11.5802 120.453 10.9588C120.453 10.3373 119.978 9.69644 118.907 9.69644C117.836 9.69644 117.212 10.2815 117.16 11.2306H114.85C114.921 9.35415 116.483 8.01172 118.881 8.01172C121.278 8.01172 122.701 9.33716 122.701 11.5389V15.5614C122.701 16.3358 122.808 17.2485 123.061 17.4549V17.7438H120.732C120.644 17.3918 120.574 16.95 120.531 16.4814C119.987 17.3481 118.968 18.0059 117.623 18.0059C115.911 18.0059 114.602 16.933 114.602 15.1657V15.1608ZM118.361 16.2532C119.704 16.2532 120.425 15.2701 120.505 13.9811L120.514 13.8087C120.54 13.5562 120.689 13.43 120.935 13.43H121.129C121.576 13.43 121.954 13.0683 121.954 12.5828C121.954 12.0973 121.595 11.7429 121.129 11.7429C120.663 11.7429 120.285 12.0949 120.285 12.5901V12.7333C120.285 13.0756 120.127 13.2479 119.722 13.328L119.318 13.4082L118.406 13.5975C117.413 13.8038 116.904 14.2117 116.904 15.0055C116.904 15.7993 117.528 16.2508 118.363 16.2508L118.361 16.2532Z" fill="white"/>
<path d="M124.411 14.7385H126.747C126.782 15.7677 127.546 16.3358 128.643 16.3358C129.617 16.3358 130.232 15.894 130.232 15.173C130.232 14.5588 129.818 14.2699 128.915 14.0806L127.317 13.7553C125.411 13.3669 124.602 12.4833 124.602 11.1044C124.602 9.32745 126.026 8.01172 128.485 8.01172C130.943 8.01172 132.296 9.40028 132.376 11.1408H130.083C130.047 10.2111 129.433 9.65274 128.44 9.65274C127.508 9.65274 126.893 10.131 126.893 10.8155C126.893 11.3472 127.262 11.653 128.052 11.8157L129.773 12.1483C131.627 12.5172 132.523 13.3936 132.523 14.855C132.523 16.9572 130.801 18.0035 128.605 18.0035C126.049 18.0035 124.451 16.7946 124.406 14.7385H124.411ZM128.626 13.6825C129.012 13.6825 129.338 13.3499 129.338 12.9421C129.338 12.5342 128.995 12.2017 128.617 12.2017C128.239 12.2017 127.889 12.5342 127.889 12.9421C127.889 13.3499 128.241 13.6825 128.626 13.6825Z" fill="white"/>
<path d="M11.4184 8.47656C10.7067 8.47656 10.0377 8.76059 9.53409 9.27765C9.03052 9.79472 8.75391 10.4817 8.75391 11.2124C8.75391 11.9431 9.03052 12.6301 9.53409 13.1472C10.0377 13.6642 10.7067 13.9483 11.4184 13.9483C12.13 13.9483 12.7991 13.6642 13.3026 13.1472C14.3405 12.0815 14.3405 10.3458 13.3026 9.28008C12.7991 8.76301 12.13 8.47899 11.4184 8.47899V8.47656Z" fill="white"/>
<path d="M19.5443 16.8223C18.8327 16.8223 18.1636 17.1063 17.6601 17.6234C17.1565 18.1404 16.8799 18.8274 16.8799 19.5581C16.8799 20.2888 17.1565 20.9758 17.6601 21.4929C18.1636 22.0099 18.8327 22.294 19.5443 22.294C20.256 22.294 20.925 22.0099 21.4286 21.4929C22.4665 20.4272 22.4665 18.6915 21.4286 17.6258C20.925 17.1087 20.256 16.8247 19.5443 16.8247V16.8223Z" fill="white"/>
<path d="M19.5443 8.47656C18.8327 8.47656 18.1636 8.76059 17.6601 9.27765C17.1565 9.79472 16.8799 10.4817 16.8799 11.2124C16.8799 11.9431 17.1565 12.6301 17.6601 13.1472C18.1636 13.6642 18.8327 13.9483 19.5443 13.9483C20.256 13.9483 20.925 13.6642 21.4286 13.1472C22.4665 12.0815 22.4665 10.3458 21.4286 9.28008C20.925 8.76301 20.256 8.47899 19.5443 8.47899V8.47656Z" fill="white"/>
<path d="M11.4184 0.130859C10.7067 0.130859 10.0377 0.414882 9.53409 0.93195C9.03052 1.44902 8.75391 2.13601 8.75391 2.86671C8.75391 3.5974 9.03052 4.28439 9.53409 4.80146C10.0377 5.31853 10.7067 5.60255 11.4184 5.60255C12.13 5.60255 12.7991 5.31853 13.3026 4.80146C14.3405 3.73577 14.3405 2.00007 13.3026 0.934378C12.7967 0.414882 12.13 0.130859 11.4184 0.130859Z" fill="white"/>
<path d="M3.29044 16.8223C2.57881 16.8223 1.90974 17.1063 1.40616 17.6234C0.902589 18.138 0.625977 18.825 0.625977 19.5557C0.625977 20.2864 0.902589 20.9734 1.40616 21.4904C1.90974 22.0075 2.57881 22.2915 3.29044 22.2915C4.00206 22.2915 4.67113 22.0075 5.17471 21.4904C6.21259 20.4247 6.21259 18.689 5.17471 17.6234C4.67113 17.1063 4.00206 16.8223 3.29044 16.8223Z" fill="white"/>
<path d="M3.29044 8.47656C2.57881 8.47656 1.90974 8.76059 1.40616 9.27765C0.902589 9.79472 0.625977 10.4817 0.625977 11.2124C0.625977 11.9431 0.902589 12.6301 1.40616 13.1472C1.90974 13.6642 2.57881 13.9483 3.29044 13.9483C4.00206 13.9483 4.67113 13.6642 5.17471 13.1472C6.21259 12.0815 6.21259 10.3458 5.17471 9.28008C4.67113 8.76301 4.00206 8.47899 3.29044 8.47899V8.47656Z" fill="white"/>
</g>
<defs>
<clipPath id="clip0_787_942">
<rect width="131.901" height="22.1611" fill="white" transform="translate(0.625977 0.130859)"/>
</clipPath>
</defs>
</svg>
