<svg width="136" height="23" viewBox="0 0 136 23" fill="none" xmlns="http://www.w3.org/2000/svg">
<g clip-path="url(#clip0_828_1089)">
<path d="M34.1068 4.97461H37.1902L41.5644 17.8294H39.0721L38.0057 14.5843C37.9261 14.3334 38.0153 14.1356 38.2397 14.0656L38.5365 13.9667C39.0383 13.805 39.2989 13.2767 39.1107 12.7386C38.9225 12.2199 38.4834 12.0655 37.9912 12.2006L37.7041 12.2802C37.4628 12.3598 37.2819 12.244 37.2119 11.9931L35.6171 7.05434L34.003 11.9931C33.9403 12.2271 33.7618 12.3598 33.5012 12.2899L33.2865 12.2175C32.7484 12.0655 32.2466 12.2706 32.0753 12.7989C31.9233 13.3008 32.2104 13.793 32.7291 13.9739L33.0066 14.0728C33.2213 14.1452 33.2841 14.3334 33.2044 14.5843L32.1115 17.8294H29.665L34.1116 4.97461H34.1068ZM34.3022 12.4153H36.9634C37.5376 12.4153 37.9864 12.8544 37.9864 13.419C37.9864 13.9836 37.5376 14.3865 36.9634 14.3865H34.3022C33.7208 14.3865 33.272 13.9739 33.272 13.419C33.272 12.8641 33.7208 12.4153 34.3022 12.4153Z" fill="black"/>
<path d="M42.9521 8.41636H45.068V9.30423C45.068 9.45623 44.9426 9.60099 44.7713 9.60099H44.4214C43.9654 9.60099 43.5601 9.93153 43.5601 10.4261C43.5601 10.8918 43.9003 11.2585 44.3659 11.2585C44.8316 11.2585 45.0728 10.9183 45.1911 10.4261C45.29 10.0232 45.4516 9.66372 45.6567 9.36937C46.1417 8.64315 46.921 8.24023 47.9415 8.24023C48.1201 8.24023 48.2914 8.25712 48.4072 8.28608V10.5009C48.1731 10.4478 47.9415 10.4213 47.6809 10.4213C46.2912 10.4213 45.2248 11.3261 45.2248 13.2707V17.8331H42.9473V8.42119L42.9521 8.41636Z" fill="black"/>
<path d="M49.083 13.1577C49.083 9.99471 50.9118 8.15625 53.4837 8.15625C55.7686 8.15625 57.4454 9.41085 57.6167 11.9031H55.286C55.2233 10.5955 54.5236 9.93922 53.5199 9.93922C52.2653 9.93922 51.4402 10.9791 51.4402 13.1119C51.4402 15.2447 52.2388 16.2942 53.503 16.2942C54.4705 16.2942 55.1799 15.6476 55.286 14.3231H57.6167C57.4116 16.825 55.7082 18.0869 53.4669 18.0869C50.8491 18.0869 49.083 16.357 49.083 13.1577ZM50.2749 13.9395C50.7236 13.9395 51.1 13.58 51.1 13.124C51.1 12.668 50.7236 12.2988 50.2749 12.2988C49.8261 12.2988 49.4594 12.6752 49.4594 13.124C49.4594 13.5727 49.8189 13.9395 50.2749 13.9395Z" fill="black"/>
<path d="M59.4336 4.97461H61.6484V9.18715C61.6484 9.44772 61.5061 9.59972 61.2455 9.59972H60.8233C60.348 9.59972 59.962 9.94956 59.962 10.4249C59.962 10.9002 60.3022 11.2572 60.7775 11.2572C61.2528 11.2572 61.5037 10.9605 61.6557 10.4249C62.0948 8.99897 62.9827 8.15694 64.5605 8.15694C66.3894 8.15694 67.492 9.43083 67.492 11.3658V17.8294H65.2144V11.5805C65.2144 10.5407 64.686 9.93991 63.6823 9.93991C62.4543 9.93991 61.7112 10.917 61.7112 12.7266V17.827H59.4336V4.97461Z" fill="black"/>
<path d="M70.9512 4.72266C71.7233 4.72266 72.3409 5.27757 72.3409 5.9869C72.3409 6.69623 71.7233 7.26804 70.9512 7.26804C70.1792 7.26804 69.5615 6.70347 69.5615 5.9869C69.5615 5.27034 70.1792 4.72266 70.9512 4.72266ZM69.8028 8.41647H72.0804V17.8284H69.8028V8.41647Z" fill="black"/>
<path d="M73.4971 8.41602H75.917L77.8085 14.2861C77.8447 14.385 77.8616 14.4574 77.8616 14.5273C77.8616 14.6528 77.8158 14.7324 77.7265 14.8241L77.5118 15.0388C77.3236 15.227 77.2343 15.461 77.2343 15.6927C77.2343 16.1945 77.6276 16.5974 78.1318 16.5974C78.6361 16.5974 79.0294 16.1945 79.0294 15.6927C79.0294 15.4683 78.9401 15.227 78.7519 15.0388L78.5372 14.8338C78.4479 14.7445 78.4021 14.6625 78.4021 14.5563C78.4021 14.4767 78.4286 14.3946 78.4551 14.315L80.3008 8.41602H82.6315L79.3237 17.8279H76.8772L73.4971 8.41602Z" fill="black"/>
<path d="M83.6055 13.1143C83.6055 10.0044 85.5501 8.15625 88.151 8.15625C90.7518 8.15625 92.4455 9.84995 92.4455 12.9696C92.4455 13.2108 92.4455 13.4449 92.4359 13.6692H86.7613C86.2763 13.6692 85.9361 13.3387 85.9361 12.8803C85.9361 12.4219 86.2763 12.0913 86.7613 12.0913H90.0859C89.9967 10.5496 89.297 9.8403 88.1413 9.8403C87.0653 9.8403 86.286 10.54 86.0519 11.7849C86.0061 11.99 85.8903 12.0817 85.6587 12.0817H85.497C85.041 12.0817 84.6912 12.3953 84.6912 12.8513C84.6912 13.3073 85.041 13.621 85.497 13.621H85.6683C85.8734 13.621 85.982 13.7006 85.9988 13.925C86.1074 15.5559 86.9856 16.3714 88.2306 16.3714C89.2439 16.3714 89.9508 15.7803 90.1052 14.6946H92.3997C92.1584 16.7575 90.5878 18.082 88.151 18.082C85.4898 18.082 83.6055 16.4872 83.6055 13.1071V13.1143Z" fill="black"/>
<path d="M97.6165 4.97461H100.7L105.074 17.8294H102.582L101.515 14.5843C101.436 14.3334 101.525 14.1356 101.749 14.0656L102.046 13.9667C102.548 13.805 102.809 13.2767 102.62 12.7386C102.432 12.2199 101.993 12.0655 101.501 12.2006L101.214 12.2802C100.973 12.3598 100.792 12.244 100.722 11.9931L99.1269 7.05434L97.5128 11.9931C97.4501 12.2271 97.2715 12.3598 97.011 12.2899L96.7962 12.2175C96.2582 12.0655 95.7564 12.2706 95.5851 12.7989C95.4331 13.3008 95.7202 13.793 96.2389 13.9739L96.5164 14.0728C96.7311 14.1452 96.7938 14.3334 96.7142 14.5843L95.6213 17.8294H93.1748L97.6214 4.97461H97.6165ZM97.812 12.4153H100.473C101.047 12.4153 101.496 12.8544 101.496 13.419C101.496 13.9836 101.047 14.3865 100.473 14.3865H97.812C97.2305 14.3865 96.7818 13.9739 96.7818 13.419C96.7818 12.8641 97.2305 12.4153 97.812 12.4153Z" fill="black"/>
<path d="M106.676 15.2742V10.1738H105.071V8.41739H105.259C106.451 8.41739 106.972 7.91556 107.042 6.54515L107.088 5.62109H108.944V7.71772C108.944 7.93244 108.828 8.0579 108.613 8.0579H108.138C107.646 8.0579 107.269 8.42463 107.269 8.89028C107.269 9.38247 107.646 9.75885 108.138 9.75885C108.603 9.75885 108.973 9.38247 108.973 8.89028V8.73828C108.973 8.5332 109.098 8.41498 109.313 8.41498H110.997V10.1714H108.944V15.0306C108.944 15.8919 109.419 16.1597 110.119 16.1597C110.353 16.1597 110.604 16.1332 110.835 16.0801V17.8269C110.459 17.9354 110.029 17.9982 109.544 17.9982C107.831 17.9982 106.676 17.2719 106.676 15.2742Z" fill="black"/>
<path d="M112.734 4.97461H115.012V17.8294H112.734V4.97461Z" fill="black"/>
<path d="M116.857 15.2636C116.857 13.4444 118.032 12.6024 119.852 12.3225L121.429 12.0812C122.423 11.9292 122.829 11.7048 122.829 11.0872C122.829 10.4696 122.344 9.83261 121.251 9.83261C120.158 9.83261 119.521 10.4141 119.468 11.3574H117.111C117.183 9.49242 118.778 8.1582 121.224 8.1582C123.671 8.1582 125.123 9.47553 125.123 11.6638V15.6616C125.123 16.4313 125.232 17.3385 125.49 17.5435V17.8306H123.114C123.024 17.4808 122.952 17.0417 122.908 16.5761C122.354 17.4374 121.314 18.0912 119.941 18.0912C118.194 18.0912 116.857 17.0248 116.857 15.2684V15.2636ZM120.694 16.3493C122.064 16.3493 122.8 15.3721 122.882 14.091L122.892 13.9197C122.918 13.6688 123.07 13.5433 123.321 13.5433H123.519C123.975 13.5433 124.361 13.1838 124.361 12.7013C124.361 12.2187 123.994 11.8665 123.519 11.8665C123.044 11.8665 122.658 12.2163 122.658 12.7085V12.8509C122.658 13.1911 122.496 13.3624 122.083 13.442L121.671 13.5216L120.739 13.7098C119.726 13.9149 119.207 14.3202 119.207 15.1091C119.207 15.8981 119.844 16.3468 120.696 16.3468L120.694 16.3493Z" fill="black"/>
<path d="M126.868 14.8437H129.252C129.288 15.8667 130.067 16.4313 131.187 16.4313C132.181 16.4313 132.808 15.9922 132.808 15.2756C132.808 14.6652 132.386 14.3781 131.464 14.1899L129.833 13.8666C127.889 13.4806 127.064 12.6024 127.064 11.232C127.064 9.46588 128.516 8.1582 131.025 8.1582C133.534 8.1582 134.914 9.53826 134.996 11.2682H132.656C132.62 10.3441 131.993 9.78918 130.979 9.78918C130.029 9.78918 129.401 10.2645 129.401 10.9449C129.401 11.4732 129.778 11.7772 130.584 11.9389L132.34 12.2694C134.232 12.6361 135.146 13.5071 135.146 14.9596C135.146 17.0489 133.39 18.0888 131.148 18.0888C128.54 18.0888 126.909 16.8873 126.863 14.8437H126.868ZM131.172 13.7942C131.566 13.7942 131.899 13.4637 131.899 13.0584C131.899 12.653 131.549 12.3225 131.163 12.3225C130.777 12.3225 130.42 12.653 130.42 13.0584C130.42 13.4637 130.779 13.7942 131.172 13.7942Z" fill="black"/>
<path d="M19.9332 8.42624C19.1467 8.42624 18.406 8.73265 17.851 9.28998C17.2937 9.84731 16.9873 10.5856 16.9873 11.3721C16.9873 12.1587 17.2937 12.8994 17.851 13.4543C18.4084 14.0116 19.1467 14.318 19.9332 14.318C20.7197 14.318 21.4604 14.0116 22.0153 13.4543C23.1638 12.3058 23.1638 10.436 22.0153 9.28757C21.458 8.73024 20.7197 8.42383 19.9332 8.42383V8.42624Z" fill="black"/>
<path d="M19.9332 16.4575C19.1467 16.4575 18.406 16.7639 17.851 17.3212C17.2937 17.8786 16.9873 18.6168 16.9873 19.4034C16.9873 20.1899 17.2937 20.9306 17.851 21.4855C18.4084 22.0429 19.1467 22.3493 19.9332 22.3493C20.7197 22.3493 21.4604 22.0429 22.0153 21.4855C23.1638 20.3371 23.1638 18.4673 22.0153 17.3188C21.458 16.7615 20.7197 16.4551 19.9332 16.4551V16.4575Z" fill="black"/>
<path d="M3.79452 8.42624C3.00798 8.42624 2.26729 8.73265 1.71237 9.28998C1.15504 9.8449 0.848633 10.5832 0.848633 11.3721C0.848633 12.1587 1.15504 12.8994 1.71237 13.4543C2.2697 14.0116 3.00798 14.318 3.79452 14.318C4.58105 14.318 5.32175 14.0116 5.87666 13.4543C7.0251 12.3058 7.0251 10.436 5.87666 9.28757C5.31933 8.73024 4.58105 8.42383 3.79452 8.42383V8.42624Z" fill="black"/>
<path d="M3.79452 16.4575C3.00798 16.4575 2.26729 16.7639 1.71237 17.3212C1.15504 17.8761 0.848633 18.6168 0.848633 19.4034C0.848633 20.1899 1.15504 20.9306 1.71237 21.4855C2.2697 22.0429 3.00798 22.3493 3.79452 22.3493C4.58105 22.3493 5.32175 22.0429 5.87666 21.4855C7.0251 20.3371 7.0251 18.4673 5.87666 17.3188C5.31933 16.7615 4.58105 16.4551 3.79452 16.4551V16.4575Z" fill="black"/>
<path d="M11.8619 0.392578C11.0754 0.392578 10.3347 0.698989 9.77976 1.25632C9.22243 1.81365 8.91602 2.55193 8.91602 3.33846C8.91602 4.125 9.22243 4.86569 9.77976 5.42061C10.3371 5.97794 11.0754 6.28435 11.8619 6.28435C12.6484 6.28435 13.3891 5.97794 13.944 5.42061C15.0925 4.27217 15.0925 2.40234 13.944 1.25391C13.3891 0.698989 12.6508 0.392578 11.8619 0.392578Z" fill="black"/>
<path d="M11.8619 8.42624C11.0754 8.42624 10.3347 8.73265 9.77976 9.28998C9.22243 9.84731 8.91602 10.5856 8.91602 11.3721C8.91602 12.1587 9.22243 12.8994 9.77976 13.4543C10.3371 14.0116 11.0754 14.318 11.8619 14.318C12.6484 14.318 13.3891 14.0116 13.944 13.4543C15.0925 12.3058 15.0925 10.436 13.944 9.28757C13.3867 8.73024 12.6484 8.42383 11.8619 8.42383V8.42624Z" fill="black"/>
</g>
<defs>
<clipPath id="clip0_828_1089">
<rect width="134.302" height="21.9578" fill="white" transform="translate(0.848633 0.392578)"/>
</clipPath>
</defs>
</svg>
